{
	"asset":{
		"generator":"Khronos glTF Blender I/O v4.1.63",
		"version":"2.0"
	},
	"extensionsUsed":[
		"KHR_materials_transmission",
		"KHR_materials_ior",
		"KHR_materials_specular"
	],
	"scene":0,
	"scenes":[
		{
			"name":"Scene",
			"nodes":[
				0,
				1,
				2
			]
		}
	],
	"nodes":[
		{
			"mesh":0,
			"name":"Foil",
			"rotation":[
				0,
				-0.5897632241249084,
				0,
				0.8075763583183289
			],
			"scale":[
				-0.042913395911455154,
				-0.042913395911455154,
				-0.042913395911455154
			]
		},
		{
			"mesh":1,
			"name":"Foil.001",
			"rotation":[
				0,
				0.807576060295105,
				0,
				0.5897634625434875
			],
			"translation":[
				0,
				0.27258992195129395,
				0
			]
		},
		{
			"mesh":2,
			"name":"Foil.003",
			"rotation":[
				0,
				-0.5897632241249084,
				0,
				0.8075763583183289
			],
			"scale":[
				-0.042913395911455154,
				-0.042913395911455154,
				-0.042913395911455154
			]
		}
	],
	"materials":[
		{
			"doubleSided":true,
			"extensions":{
				"KHR_materials_transmission":{
					"transmissionFactor":1
				},
				"KHR_materials_ior":{
					"ior":1.350000023841858
				}
			},
			"name":"Bottle",
			"pbrMetallicRoughness":{
				"baseColorFactor":[
					0.011874457821249962,
					0.11603397130966187,
					0,
					0.6842105388641357
				],
				"metallicFactor":0,
				"roughnessFactor":0
			}
		},
		{
			"doubleSided":true,
			"name":"Foil",
			"normalTexture":{
				"index":0
			},
			"pbrMetallicRoughness":{
				"baseColorFactor":[
					1,
					0.1609344482421875,
					0.05364793539047241,
					1
				],
				"metallicFactor":0.17470484972000122,
				"metallicRoughnessTexture":{
					"index":1
				}
			}
		},
		{
			"doubleSided":true,
			"extensions":{
				"KHR_materials_transmission":{
					"transmissionFactor":1
				},
				"KHR_materials_specular":{
					"specularColorFactor":[
						2.0,
						2.0,
						2.0
					]
				},
				"KHR_materials_ior":{
					"ior":1.350000023841858
				}
			},
			"name":"wine",
			"pbrMetallicRoughness":{
				"baseColorFactor":[
					0.11607562005519867,
					0,
					0.004778506699949503,
					0.798245906829834
				],
				"metallicFactor":0,
				"roughnessFactor":0
			}
		}
	],
	"meshes":[
		{
			"name":"Circle",
			"primitives":[
				{
					"attributes":{
						"POSITION":0,
						"NORMAL":1,
						"TEXCOORD_0":2
					},
					"indices":3,
					"material":0
				}
			]
		},
		{
			"name":"Circle.003",
			"primitives":[
				{
					"attributes":{
						"POSITION":4,
						"NORMAL":5,
						"TEXCOORD_0":6
					},
					"indices":7,
					"material":1
				}
			]
		},
		{
			"name":"Circle.004",
			"primitives":[
				{
					"attributes":{
						"POSITION":8,
						"NORMAL":9,
						"TEXCOORD_0":10
					},
					"indices":11,
					"material":2
				}
			]
		}
	],
	"textures":[
		{
			"sampler":0,
			"source":0
		},
		{
			"sampler":0,
			"source":1
		}
	],
	"images":[
		{
			"mimeType":"image/png",
			"name":"Foil",
			"uri":"WineTextures/Foil.png"
		},
		{
			"mimeType":"image/png",
			"name":"Foil",
			"uri":"WineTextures/Foil-1.png"
		}
	],
	"accessors":[
		{
			"bufferView":0,
			"componentType":5126,
			"count":3424,
			"max":[
				1.0084220170974731,
				0.007960787042975426,
				1
			],
			"min":[
				-1.0084220170974731,
				-6.765906810760498,
				-1.0038235187530518
			],
			"type":"VEC3"
		},
		{
			"bufferView":1,
			"componentType":5126,
			"count":3424,
			"type":"VEC3"
		},
		{
			"bufferView":2,
			"componentType":5126,
			"count":3424,
			"type":"VEC2"
		},
		{
			"bufferView":3,
			"componentType":5123,
			"count":18996,
			"type":"SCALAR"
		},
		{
			"bufferView":4,
			"componentType":5126,
			"count":9339,
			"max":[
				0.015619771555066109,
				0.018502920866012573,
				0.015619771555066109
			],
			"min":[
				-0.015619771555066109,
				-0.04423337057232857,
				-0.015619771555066109
			],
			"type":"VEC3"
		},
		{
			"bufferView":5,
			"componentType":5126,
			"count":9339,
			"type":"VEC3"
		},
		{
			"bufferView":6,
			"componentType":5126,
			"count":9339,
			"type":"VEC2"
		},
		{
			"bufferView":7,
			"componentType":5123,
			"count":54138,
			"type":"SCALAR"
		},
		{
			"bufferView":8,
			"componentType":5126,
			"count":725,
			"max":[
				0.9703482389450073,
				0.007960787042975426,
				0.9621498584747314
			],
			"min":[
				-0.9703482389450073,
				-4.999399662017822,
				-0.9659733772277832
			],
			"type":"VEC3"
		},
		{
			"bufferView":9,
			"componentType":5126,
			"count":725,
			"type":"VEC3"
		},
		{
			"bufferView":10,
			"componentType":5126,
			"count":725,
			"type":"VEC2"
		},
		{
			"bufferView":11,
			"componentType":5123,
			"count":4320,
			"type":"SCALAR"
		}
	],
	"bufferViews":[
		{
			"buffer":0,
			"byteLength":41088,
			"byteOffset":0,
			"target":34962
		},
		{
			"buffer":0,
			"byteLength":41088,
			"byteOffset":41088,
			"target":34962
		},
		{
			"buffer":0,
			"byteLength":27392,
			"byteOffset":82176,
			"target":34962
		},
		{
			"buffer":0,
			"byteLength":37992,
			"byteOffset":109568,
			"target":34963
		},
		{
			"buffer":0,
			"byteLength":112068,
			"byteOffset":147560,
			"target":34962
		},
		{
			"buffer":0,
			"byteLength":112068,
			"byteOffset":259628,
			"target":34962
		},
		{
			"buffer":0,
			"byteLength":74712,
			"byteOffset":371696,
			"target":34962
		},
		{
			"buffer":0,
			"byteLength":108276,
			"byteOffset":446408,
			"target":34963
		},
		{
			"buffer":0,
			"byteLength":8700,
			"byteOffset":554684,
			"target":34962
		},
		{
			"buffer":0,
			"byteLength":8700,
			"byteOffset":563384,
			"target":34962
		},
		{
			"buffer":0,
			"byteLength":5800,
			"byteOffset":572084,
			"target":34962
		},
		{
			"buffer":0,
			"byteLength":8640,
			"byteOffset":577884,
			"target":34963
		}
	],
	"samplers":[
		{
			"magFilter":9729,
			"minFilter":9987
		}
	],
	"buffers":[
		{
			"byteLength":586524,
			"uri":"wine-bottle-TEST.bin"
		}
	]
}
