{
	"asset":{
		"generator":"Khronos glTF Blender I/O v4.1.63",
		"version":"2.0"
	},
	"extensionsUsed":[
		"KHR_materials_transmission",
		"KHR_materials_ior",
		"KHR_materials_specular"
	],
	"scene":0,
	"scenes":[
		{
			"name":"Scene",
			"nodes":[
				0,
				1,
				2,
				3
			]
		}
	],
	"nodes":[
		{
			"mesh":0,
			"name":"Foil",
			"rotation":[
				0,
				-0.5897632241249084,
				0,
				0.8075763583183289
			],
			"scale":[
				-0.042913395911455154,
				-0.042913395911455154,
				-0.042913395911455154
			]
		},
		{
			"mesh":1,
			"name":"Foil.001",
			"rotation":[
				0,
				0.807576060295105,
				0,
				0.5897634625434875
			],
			"translation":[
				0,
				0.27258992195129395,
				0
			]
		},
		{
			"mesh":2,
			"name":"Foil.003",
			"rotation":[
				0,
				-0.5897632241249084,
				0,
				0.8075763583183289
			],
			"scale":[
				-0.042913395911455154,
				-0.042913395911455154,
				-0.042913395911455154
			]
		},
		{
			"mesh":3,
			"name":"Label_COL",
			"rotation":[
				-0.807576060295105,
				0,
				0.5897635221481323,
				1.524964972077214e-07
			],
			"scale":[
				-0.9999999403953552,
				-1,
				-0.9999999403953552
			]
		}
	],
	"materials":[
		{
			"doubleSided":true,
			"extensions":{
				"KHR_materials_transmission":{
					"transmissionFactor":1
				},
				"KHR_materials_ior":{
					"ior":1.350000023841858
				}
			},
			"name":"Bottle",
			"pbrMetallicRoughness":{
				"baseColorFactor":[
					0.011874457821249962,
					0.11603397130966187,
					0,
					0.6842105388641357
				],
				"metallicFactor":0,
				"roughnessFactor":0
			}
		},
		{
			"doubleSided":true,
			"name":"Foil",
			"pbrMetallicRoughness":{
				"baseColorFactor":[
					1,
					0.1609344482421875,
					0.05364793539047241,
					1
				],
				"metallicFactor":0.17470484972000122,
				"metallicRoughnessTexture":{
					"index":0
				}
			}
		},
		{
			"doubleSided":true,
			"extensions":{
				"KHR_materials_transmission":{
					"transmissionFactor":1
				},
				"KHR_materials_specular":{
					"specularColorFactor":[
						2.0,
						2.0,
						2.0
					]
				},
				"KHR_materials_ior":{
					"ior":1.350000023841858
				}
			},
			"name":"wine",
			"pbrMetallicRoughness":{
				"baseColorFactor":[
					0.11607562005519867,
					0,
					0.004778506699949503,
					0.798245906829834
				],
				"metallicFactor":0,
				"roughnessFactor":0
			}
		},
		{
			"alphaMode":"BLEND",
			"doubleSided":true,
			"name":"Label_COL",
			"normalTexture":{
				"index":1
			},
			"pbrMetallicRoughness":{
				"baseColorTexture":{
					"index":2
				},
				"metallicFactor":0,
				"metallicRoughnessTexture":{
					"index":3
				}
			}
		}
	],
	"meshes":[
		{
			"name":"Circle",
			"primitives":[
				{
					"attributes":{
						"POSITION":0,
						"NORMAL":1,
						"TEXCOORD_0":2
					},
					"indices":3,
					"material":0
				}
			]
		},
		{
			"name":"Circle.003",
			"primitives":[
				{
					"attributes":{
						"POSITION":4,
						"NORMAL":5,
						"TEXCOORD_0":6
					},
					"indices":7,
					"material":1
				}
			]
		},
		{
			"name":"Circle.004",
			"primitives":[
				{
					"attributes":{
						"POSITION":8,
						"NORMAL":9,
						"TEXCOORD_0":10
					},
					"indices":11,
					"material":2
				}
			]
		},
		{
			"name":"Label_COL",
			"primitives":[
				{
					"attributes":{
						"POSITION":12,
						"NORMAL":13,
						"TEXCOORD_0":14
					},
					"indices":15,
					"material":3
				}
			]
		}
	],
	"textures":[
		{
			"sampler":0,
			"source":0
		},
		{
			"sampler":0,
			"source":1
		},
		{
			"sampler":1,
			"source":2
		},
		{
			"sampler":0,
			"source":3
		}
	],
	"images":[
		{
			"mimeType":"image/png",
			"name":"Image",
			"uri":"WineTextures/Image.png"
		},
		{
			"mimeType":"image/png",
			"name":"Label_GLOSS",
			"uri":"WineTextures/Label_GLOSS.png"
		},
		{
			"mimeType":"image/png",
			"name":"Label_COL",
			"uri":"WineTextures/Label_COL.png"
		},
		{
			"mimeType":"image/png",
			"name":"Label_GLOSS",
			"uri":"WineTextures/Label_GLOSS-1.png"
		}
	],
	"accessors":[
		{
			"bufferView":0,
			"componentType":5126,
			"count":58882,
			"max":[
				0.9994802474975586,
				-0.004358736798167229,
				0.9935950636863708
			],
			"min":[
				-0.9994802474975586,
				-6.7659077644348145,
				-0.9967364072799683
			],
			"type":"VEC3"
		},
		{
			"bufferView":1,
			"componentType":5126,
			"count":58882,
			"type":"VEC3"
		},
		{
			"bufferView":2,
			"componentType":5126,
			"count":58882,
			"type":"VEC2"
		},
		{
			"bufferView":3,
			"componentType":5123,
			"count":302592,
			"type":"SCALAR"
		},
		{
			"bufferView":4,
			"componentType":5126,
			"count":9339,
			"max":[
				0.015619771555066109,
				0.018502920866012573,
				0.015619771555066109
			],
			"min":[
				-0.015619771555066109,
				-0.04423337057232857,
				-0.015619771555066109
			],
			"type":"VEC3"
		},
		{
			"bufferView":5,
			"componentType":5126,
			"count":9339,
			"type":"VEC3"
		},
		{
			"bufferView":6,
			"componentType":5126,
			"count":9339,
			"type":"VEC2"
		},
		{
			"bufferView":7,
			"componentType":5123,
			"count":54138,
			"type":"SCALAR"
		},
		{
			"bufferView":8,
			"componentType":5126,
			"count":11675,
			"max":[
				0.9524346590042114,
				0.0026524111162871122,
				0.9459432363510132
			],
			"min":[
				-0.9524346590042114,
				-4.997096061706543,
				-0.9494395852088928
			],
			"type":"VEC3"
		},
		{
			"bufferView":9,
			"componentType":5126,
			"count":11675,
			"type":"VEC3"
		},
		{
			"bufferView":10,
			"componentType":5126,
			"count":11675,
			"type":"VEC2"
		},
		{
			"bufferView":11,
			"componentType":5123,
			"count":68448,
			"type":"SCALAR"
		},
		{
			"bufferView":12,
			"componentType":5126,
			"count":504,
			"max":[
				0.043035198003053665,
				0.11535146087408066,
				0.04298658296465874
			],
			"min":[
				-0.04303498566150665,
				0.021991722285747528,
				-0.0417843833565712
			],
			"type":"VEC3"
		},
		{
			"bufferView":13,
			"componentType":5126,
			"count":504,
			"type":"VEC3"
		},
		{
			"bufferView":14,
			"componentType":5126,
			"count":504,
			"type":"VEC2"
		},
		{
			"bufferView":15,
			"componentType":5123,
			"count":1476,
			"type":"SCALAR"
		}
	],
	"bufferViews":[
		{
			"buffer":0,
			"byteLength":706584,
			"byteOffset":0,
			"target":34962
		},
		{
			"buffer":0,
			"byteLength":706584,
			"byteOffset":706584,
			"target":34962
		},
		{
			"buffer":0,
			"byteLength":471056,
			"byteOffset":1413168,
			"target":34962
		},
		{
			"buffer":0,
			"byteLength":605184,
			"byteOffset":1884224,
			"target":34963
		},
		{
			"buffer":0,
			"byteLength":112068,
			"byteOffset":2489408,
			"target":34962
		},
		{
			"buffer":0,
			"byteLength":112068,
			"byteOffset":2601476,
			"target":34962
		},
		{
			"buffer":0,
			"byteLength":74712,
			"byteOffset":2713544,
			"target":34962
		},
		{
			"buffer":0,
			"byteLength":108276,
			"byteOffset":2788256,
			"target":34963
		},
		{
			"buffer":0,
			"byteLength":140100,
			"byteOffset":2896532,
			"target":34962
		},
		{
			"buffer":0,
			"byteLength":140100,
			"byteOffset":3036632,
			"target":34962
		},
		{
			"buffer":0,
			"byteLength":93400,
			"byteOffset":3176732,
			"target":34962
		},
		{
			"buffer":0,
			"byteLength":136896,
			"byteOffset":3270132,
			"target":34963
		},
		{
			"buffer":0,
			"byteLength":6048,
			"byteOffset":3407028,
			"target":34962
		},
		{
			"buffer":0,
			"byteLength":6048,
			"byteOffset":3413076,
			"target":34962
		},
		{
			"buffer":0,
			"byteLength":4032,
			"byteOffset":3419124,
			"target":34962
		},
		{
			"buffer":0,
			"byteLength":2952,
			"byteOffset":3423156,
			"target":34963
		}
	],
	"samplers":[
		{
			"magFilter":9729,
			"minFilter":9987
		},
		{
			"magFilter":9729,
			"minFilter":9987,
			"wrapS":33071,
			"wrapT":33071
		}
	],
	"buffers":[
		{
			"byteLength":3426108,
			"uri":"wine-bottle-tut.bin"
		}
	]
}
